<?xml version="1.0" encoding="UTF-8"?>
<svg width="498px" height="360px" viewBox="0 0 498 360" version="1.1" xmlns="http://www.w3.org/2000/svg" xmlns:xlink="http://www.w3.org/1999/xlink">
    <!-- Generator: Sketch 52.1 (67048) - http://www.bohemiancoding.com/sketch -->
    <title>coinpayments-logo-light</title>
    <desc>Created with Sketch.</desc>
    <g id="Page-1" stroke="none" stroke-width="1" fill="none" fill-rule="evenodd">
        <g id="coinpayments-logo-light" fill="#FFFFFF" fill-rule="nonzero">
            <path d="M377.71,312 C374.832703,311.283766 371.787635,311.776285 369.28283,313.363039 C366.778026,314.949793 365.031734,317.492524 364.45,320.4 C364.31,321.14 364.58,321.25 365.22,321.25 C368.22,321.25 371.22,321.25 374.22,321.25 L383.31,321.25 C383.72,321.25 384.07,321.32 384.09,320.67 C384.093543,316.693995 381.507116,313.179211 377.71,312 Z M391.38,325.52 C391.31,326.36 391.01,326.52 390.27,326.52 C381.923333,326.52 373.59,326.52 365.27,326.52 C363.97,326.52 363.97,326.52 364.18,327.8 C365.18,333.98 368.83,337.85 374.75,338.8 C379.29,339.53 383.32,338.09 386.94,335.38 C387.19,335.2 387.42,335 387.66,334.82 C387.728011,334.770933 387.801925,334.730617 387.88,334.7 C388.81,336.21 389.7,337.75 390.67,339.25 C391.06,339.85 390.61,340.03 390.3,340.25 C387.298692,342.730926 383.673395,344.339478 379.82,344.9 C373.94,345.73 368.47,344.65 363.74,340.9 C359.713678,337.726455 357.200392,333.011776 356.81,327.9 C356.198284,323.252752 357.181931,318.535477 359.6,314.52 C362.560314,309.607648 367.745526,306.463623 373.47,306.11 C377.416404,305.569677 381.423757,306.498557 384.73,308.72 C388.87,311.62 390.73,315.83 391.37,320.72 C391.539852,322.308634 391.543203,323.910669 391.38,325.5 L391.38,325.52 Z M232,326.88 C232,326.4 231.83,326.22 231.35,326.23 C230.35,326.23 229.35,326.23 228.42,326.23 C226.939361,326.243271 225.460527,326.336741 223.99,326.51 C221.73743,326.691412 219.554041,327.374788 217.6,328.51 C215.7336,329.651286 214.72671,331.79486 215.04,333.96 C215.178852,336.074753 216.550709,337.909122 218.54,338.64 C221.37775,339.929624 224.699805,339.51195 227.13,337.56 C230.61,334.87 231.95,331.13 232,326.84 L232,326.88 Z M243.74,343.59 C243.74,344.04 243.64,344.28 243.13,344.27 C240.78,344.21 238.41,344.42 236.07,344.16 C233.43,343.87 232.23,342.38 232.34,339.72 C232.34,339.14 232.42,338.57 232.46,338 C231.395729,339.727781 230.042746,341.260034 228.46,342.53 C223.318052,346.158262 216.402797,345.975211 211.46,342.08 C208.889921,339.900175 207.485901,336.644734 207.664466,333.279461 C207.843032,329.914189 209.583674,326.825608 212.37,324.93 C215.438654,323.027008 218.898609,321.844059 222.49,321.47 C225.30862,321.076537 228.155193,320.919323 231,321 C231.72,321 231.91,320.78 231.89,320.08 C231.871382,318.83571 231.710333,317.597644 231.41,316.39 C230.880798,314.10387 229.017656,312.367311 226.7,312 C224.45569,311.515529 222.126319,311.594549 219.92,312.23 C217.98,312.8 217.46,313.49 217.53,315.5 C217.53,316.5 217.33,316.78 216.33,316.72 C214.72,316.63 213.1,316.72 211.49,316.72 C210.95,316.72 210.77,316.56 210.8,316.03 C210.8,315.19 210.8,314.35 210.8,313.51 C210.63217,311.220918 211.898342,309.066832 213.98,308.1 C215.891378,307.095597 217.980445,306.473972 220.13,306.27 C223.569619,305.757564 227.078474,305.972183 230.43,306.9 C235.23,308.3 237.88,311.6 238.73,316.44 C238.988026,317.966238 239.111833,319.512149 239.1,321.06 L239.1,336.11 C239.1,337.79 239.43,338.11 241.1,338.11 C241.94,338.11 243.01,337.75 243.55,338.26 C244.09,338.77 243.72,339.91 243.75,340.77 C243.78,341.63 243.75,342.66 243.75,343.6 L243.74,343.59 Z M187.4,298.43 C184.47,298.43 181.55,298.43 178.62,298.43 C177.91,298.43 177.71,298.62 177.72,299.33 C177.72,302.39 177.72,305.45 177.72,308.51 C177.72,311.57 177.72,314.64 177.72,317.7 C177.72,318.35 177.81,318.7 178.58,318.65 C181.58,318.6 184.64,318.65 187.67,318.65 C189.120053,318.660465 190.555546,318.360409 191.88,317.77 C195.35,316.2 196.88,313.33 197.2,309.7 C197.74,303.58 194.68,298.5 187.4,298.47 L187.4,298.43 Z M202.89,316.83 C200.367295,321.660561 195.408676,324.728539 189.96,324.83 C186.34,325.05 182.69,324.89 179.05,324.9 C177.58,324.9 177.74,324.73 177.74,326.17 C177.74,331.86 177.74,337.55 177.74,343.24 C177.74,344.06 177.51,344.24 176.74,344.24 C174.95,344.18 173.17,344.18 171.38,344.24 C170.59,344.24 170.38,344.04 170.38,343.24 C170.38,335.89 170.38,328.55 170.38,321.24 C170.38,313.93 170.38,306.69 170.38,299.42 C170.38,298.64 170.21,298.35 169.38,298.42 C168.38,298.49 167.3,298.42 166.25,298.42 C165.66,298.42 165.52,298.23 165.53,297.67 C165.53,296.15 165.59,294.67 165.53,293.12 C165.53,292.3 165.71,292.04 166.53,292.05 C170.4,292.1 174.28,292.05 178.15,292.05 C182.02,292.05 186.03,291.97 189.97,292.12 C197.534355,292.310927 203.791132,298.067675 204.61,305.59 C205.234523,309.411116 204.610305,313.331763 202.83,316.77 L202.89,316.83 Z M85.22,325.31 C85.22,325.05 85.22,324.57 85.15,324.11 C84.6,319.53 82.44,316.01 78.15,314.17 C74.1385119,312.24386 69.3666832,312.880104 66,315.79 C62.37,318.79 61.21,322.79 61.71,327.36 C62.0568962,330.683461 63.7977591,333.703624 66.499751,335.669576 C69.2017429,337.635528 72.6110489,338.362593 75.88,337.67 C81.43,336.5 85.2,331.6 85.22,325.31 Z M75.94,345.93 C67.94,346.75 61.13,344.25 56.25,337.7 C52.084069,332.102886 51.0643252,324.766138 53.5459355,318.245073 C56.0275459,311.724009 61.6669507,306.92142 68.5,305.51 C70.1454519,305.17228 71.8202674,304.998099 73.5,304.99 C82.67,305.06 90.56,310.47 93.37,318.73 C95.4680684,324.683523 94.703479,331.271911 91.2977104,336.586707 C87.8919418,341.901504 82.2255806,345.348793 75.94,345.93 Z M110,289 C110,288.34 109.83,288.12 109.15,288.13 C107,288.13 104.84,288.13 102.69,288.13 C102.04,288.13 101.81,288.29 101.82,288.97 C101.82,291.83 101.82,294.69 101.82,297.55 C101.82,298.16 101.98,298.38 102.62,298.36 C104.8,298.36 106.986667,298.36 109.18,298.36 C109.89,298.36 110.01,298.09 110,297.47 C110,296.09 110,294.71 110,293.33 C110,291.95 110,290.43 110,288.99 L110,289 Z M101.94,327.7 C101.94,331.91 101.89,336.11 101.94,340.32 C102,343.19 103.66,344.87 106.51,345.1 C109.36,345.33 112.17,345.15 114.99,345.21 C115.49,345.21 115.62,344.99 115.62,344.54 C115.62,342.28 115.62,340.023333 115.62,337.77 C115.62,337.24 115.44,337.05 114.92,337.07 C114.01,337.07 113.09,337.02 112.19,337.07 C111.29,337.12 110.93,336.81 110.94,335.83 C110.94,328.83 110.94,321.76 110.94,314.72 C110.94,313.31 110.94,311.89 110.84,310.48 C110.862151,309.209187 110.351745,307.987036 109.432356,307.109437 C108.512966,306.231838 107.26841,305.778798 106,305.86 C103.31,305.78 100.62,305.86 97.92,305.86 C97.41,305.86 97.22,305.99 97.22,306.53 C97.22,308.79 97.22,311.04 97.22,313.3 C97.22,313.84 97.41,313.99 97.92,313.97 C98.83,313.97 99.74,314.02 100.65,313.97 C101.56,313.92 101.92,314.24 101.91,315.21 C101.86,319.39 101.91,323.56 101.91,327.74 L101.94,327.7 Z M447.71,333 C448.14,337.14 449.84,340.56 453.6,342.66 C456.74,344.42 460.18,344.66 463.69,344.51 C464.25,344.51 464.33,344.18 464.32,343.72 C464.32,342.17 464.32,340.62 464.32,339.07 C464.32,338.32 464.22,338.07 463.32,338.16 C459.39,338.41 456.08,336.91 455.03,332.74 C454.822307,331.89238 454.718214,331.022693 454.72,330.15 C454.72,324.59 454.72,319.033333 454.72,313.48 C454.72,312.74 454.98,312.6 455.65,312.61 C458.08,312.61 460.5,312.61 462.92,312.61 C463.48,312.61 463.69,312.46 463.67,311.88 C463.67,310.47 463.67,309.05 463.67,307.64 C463.67,307 463.48,306.85 462.87,306.86 C460.55,306.86 458.22,306.81 455.87,306.86 C454.87,306.86 454.66,306.55 454.68,305.62 C454.75,302.86 454.68,300.1 454.68,297.34 C454.68,296.71 454.51,296.52 453.89,296.54 C452.07,296.54 450.25,296.54 448.44,296.54 C447.74,296.54 447.61,296.77 447.61,297.4 C447.61,300.23 447.61,303.06 447.61,305.89 C447.61,306.61 447.47,306.89 446.67,306.89 C445.53,306.82 444.39,306.89 443.24,306.89 C442.73,306.89 442.53,307.03 442.54,307.57 C442.58,309.023333 442.58,310.473333 442.54,311.92 C442.54,312.53 442.77,312.65 443.31,312.63 C444.38,312.63 445.46,312.63 446.54,312.63 C447.25,312.63 447.45,312.84 447.44,313.54 C447.44,316.54 447.44,319.54 447.44,323.15 C447.54,326.02 447.24,329.53 447.61,333.02 L447.71,333 Z M469.54,337.82 C469.04,338.42 469.09,338.77 469.63,339.31 C473.184021,342.938643 478.021699,345.025273 483.1,345.12 C486.89872,345.436953 490.684147,344.371636 493.76,342.12 C495.858305,340.544245 497.234527,338.19065 497.57875,335.589227 C497.922973,332.987805 497.206256,330.357269 495.59,328.29 C494.281003,326.785833 492.673684,325.570128 490.87,324.72 C488.662113,323.647558 486.398939,322.692886 484.09,321.86 C482.339623,321.259754 480.675454,320.432713 479.14,319.4 C477.858388,318.633372 477.133982,317.196246 477.28,315.71 C477.486288,314.126669 478.614448,312.817689 480.15,312.38 C481.874124,311.771034 483.72019,311.589172 485.53,311.85 C486.848805,311.948893 488.102249,312.463575 489.11,313.32 C490.01,314.15 489.78,315.24 489.8,316.26 C489.8,316.74 490.08,316.79 490.46,316.79 L495.62,316.79 C495.93,316.79 496.24,316.79 496.23,316.34 C496.321925,314.895773 496.278401,313.446111 496.1,312.01 C495.61,309.72 493.93,308.45 491.93,307.54 C489.742506,306.57973 487.388315,306.056576 485,306 C481.520357,305.704381 478.029599,306.423373 474.95,308.07 C472.207243,309.573309 470.391865,312.342371 470.107067,315.457101 C469.822269,318.571832 471.105358,321.624205 473.53,323.6 C475.085735,324.892787 476.824667,325.947604 478.69,326.73 C481.03,327.73 483.4,328.73 485.74,329.73 C486.994456,330.227011 488.157111,330.930012 489.18,331.81 C490.047963,332.559705 490.534265,333.658929 490.505214,334.805478 C490.476163,335.952027 489.934817,337.025213 489.03,337.73 C488.221947,338.399729 487.253569,338.847733 486.22,339.03 C482.905616,339.63759 479.484609,338.942642 476.67,337.09 C475.195314,336.165647 473.850177,335.049183 472.67,333.77 C471.62,335.13 470.62,336.49 469.55,337.77 L469.54,337.82 Z M407.93,311 C407.93,308.41 406.56,307 403.93,306.93 C401.65,306.86 399.36,306.93 397.07,306.93 C396.47,306.93 396.33,307.14 396.35,307.69 C396.35,308.69 396.35,309.69 396.35,310.69 C396.35,313.01 396.35,313.01 398.7,313.02 C400.65,313.02 401,313.36 401,315.3 L401,342.88 C401,344.29 401,344.29 402.47,344.29 L406.81,344.29 C408.3,344.29 408.13,344.46 408.15,342.93 C408.21,336.8 407.83,330.66 408.31,324.55 C408.91,316.95 414.64,312.29 421.25,312.55 C424.51,312.7 426.55,314.33 427.25,317.49 C427.536247,318.840932 427.673732,320.219143 427.66,321.6 C427.66,327.6 427.66,333.66 427.66,339.69 C427.66,342.69 428.85,344.03 431.77,344.2 C434.12,344.34 436.49,344.2 438.84,344.26 C439.36,344.26 439.46,344.02 439.46,343.58 C439.46,342.58 439.46,341.58 439.46,340.58 C439.46,338.12 439.46,338.12 437,338.11 C435.18,338.11 434.81,337.74 434.8,335.93 L434.8,320.76 C434.818373,319.242476 434.731498,317.725505 434.54,316.22 C433.84,310.93 430.91,307.5 426.06,306.4 C425.041055,306.172252 424.003383,306.038359 422.96,306 C417.25,305.77 412.57,307.79 409.15,312.47 C408.72,313.05 408.37,313.69 407.91,314.47 C407.91,313.21 407.91,312.11 407.91,311.02 L407.93,311 Z M245.12,355.41 C244.76,355.99 244.92,356.29 245.36,356.65 C248.801944,359.742436 253.69711,360.621552 258,358.92 C262,357.47 264.24,354.32 265.77,350.52 C270.59,338.68 275.38,326.84 280.14,315 C280.69,313.65 281.47,312.84 282.99,313 C283.51,313.05 283.7,312.87 283.69,312.33 C283.69,310.74 283.69,309.16 283.69,307.58 C283.69,307.06 283.53,306.87 283,306.88 C281.62,306.88 280.23,306.88 278.86,306.88 C276.76236,306.724337 274.831434,308.026781 274.19,310.03 C274.01,310.463333 273.84,310.903333 273.68,311.35 C270.76,319.58 267.41,327.66 264.81,336.1 C264.31,334.44 263.92,332.8 263.29,331.25 C261.45,326.743333 259.623333,322.226667 257.81,317.7 L254.67,310 C254.035875,308.032433 252.130281,306.760656 250.07,306.93 C248.79,306.93 247.51,306.93 246.23,306.93 C245.54,306.93 245.39,307.17 245.41,307.8 C245.41,309.28 245.46,310.8 245.41,312.25 C245.41,312.94 245.64,313.11 246.27,313.07 C247.384792,312.937186 248.435781,313.618226 248.77,314.69 C252.89,324.303333 257.026667,333.903333 261.18,343.49 C261.31,343.8 261.51,344.1 261.35,344.49 C260.35,346.81 259.63,349.32 257.94,351.32 C256.351948,353.339468 253.664536,354.140485 251.23,353.32 C249.893835,352.841209 248.685933,352.061035 247.7,351.04 C246.81,352.6 246.01,354.09 245.13,355.51 L245.12,355.41 Z M130.69,310.47 C130.55,307.47 128.37,305.97 125.55,305.91 C122.99,305.85 120.43,305.91 117.87,305.91 C117.31,305.91 117.11,306.06 117.12,306.65 C117.12,308.87 117.12,311.09 117.12,313.31 C117.12,313.93 117.36,314.04 117.89,314.02 C118.89,314.02 119.89,314.02 120.89,314.02 C121.56,314.02 121.8,314.28 121.75,314.91 C121.75,315.18 121.75,315.45 121.75,315.72 C121.75,325.22 121.75,334.72 121.75,344.21 C121.75,345.12 122.01,345.34 122.88,345.31 C125.24,345.26 127.59,345.25 129.95,345.31 C130.77,345.31 130.95,345.07 130.95,344.31 C130.95,338.55 130.95,332.79 130.95,327.04 C130.923362,325.824929 131.007038,324.609947 131.2,323.41 C132.31,317.25 137.2,313.31 143.2,313.65 C145.478523,313.616817 147.464993,315.193448 147.95,317.42 C148.310827,318.894686 148.458993,320.41338 148.39,321.93 C148.39,326.71 148.39,331.49 148.39,336.27 C148.343345,337.784038 148.376725,339.299484 148.49,340.81 C148.543485,343.223662 150.49603,345.162954 152.91,345.2 C155.8,345.46 158.7,345.25 161.6,345.32 C162.1,345.32 162.22,345.1 162.22,344.65 C162.22,342.39 162.22,340.133333 162.22,337.88 C162.22,337.34 162.04,337.16 161.52,337.18 C160.58,337.18 159.63,337.13 158.69,337.18 C157.75,337.23 157.53,336.94 157.54,336.04 C157.54,331.43 157.54,326.82 157.54,322.2 C157.591637,320.147525 157.477936,318.094225 157.2,316.06 C156.42,311.26 154.26,307.49 149.35,305.87 C146.649185,304.998077 143.777568,304.792226 140.98,305.27 C136.99879,305.84542 133.364616,307.854528 130.76,310.92 C130.693825,310.792169 130.640239,310.658205 130.6,310.52 L130.69,310.47 Z M297.95,311.08 C297.95,308.4 296.62,307 293.95,306.92 C291.67,306.84 289.37,306.92 287.08,306.87 C286.58,306.87 286.36,306.99 286.37,307.54 C286.37,309.12 286.37,310.71 286.37,312.29 C286.37,312.91 286.61,313.02 287.15,313 C287.88,313 288.63,313 289.37,313 C290.47,313 290.94,313.5 291.03,314.61 C291.03,314.91 291.03,315.22 291.03,315.52 C291.03,324.71 291.03,333.91 291.03,343.1 C291.03,344.1 291.32,344.34 292.27,344.3 C293.885414,344.209992 295.504586,344.209992 297.12,344.3 C298.05,344.3 298.21,344.03 298.21,343.17 C298.21,337.71 298.21,332.253333 298.21,326.8 C298.145216,323.307118 299.19614,319.884609 301.21,317.03 C302.475272,315.092966 304.373069,313.654599 306.58,312.96 C311.23,311.65 315.03,312.96 315.66,318.4 C315.853288,320.37708 315.926755,322.364045 315.88,324.35 C315.88,330.61 315.88,336.88 315.88,343.14 C315.88,344.14 316.17,344.33 317.07,344.29 C318.723333,344.216667 320.39,344.216667 322.07,344.29 C322.91,344.29 323.13,344.08 323.13,343.29 C323.13,337.83 323.13,332.373333 323.13,326.92 C323.083877,324.625618 323.505794,322.345903 324.37,320.22 C325.93,316.56 328.29,313.6 332.37,312.77 C337.04,311.83 339.85,313.77 340.53,318.32 C340.692966,319.623441 340.766471,320.936514 340.75,322.25 C340.75,327.8 340.75,333.36 340.75,338.92 C340.752279,339.589033 340.799048,340.257174 340.89,340.92 C340.95738,342.69397 342.38565,344.113505 344.16,344.17 C346.78,344.49 349.41,344.24 352.04,344.32 C352.58,344.32 352.62,344.03 352.61,343.62 C352.61,342.62 352.61,341.62 352.61,340.69 C352.61,339.88 352.95,338.85 352.47,338.34 C351.99,337.83 350.88,338.17 350.05,338.15 C348.31,338.15 347.97,337.8 347.97,336.09 C347.97,330.91 347.97,325.72 347.97,320.53 C348.000307,318.576427 347.798901,316.62615 347.37,314.72 C346.44,310.83 344.37,307.87 340.37,306.72 C335.696019,305.206065 330.575125,306.11703 326.71,309.15 C324.820281,310.602381 323.290699,312.470729 322.24,314.61 L321.9,313.51 C321.213466,310.604917 319.186541,308.199337 316.44,307.03 C313.936733,305.98262 311.172542,305.727839 308.52,306.3 C303.8,307.3 300.43,310.09 298.07,314.61 C298.07,313.27 298.07,312.21 298.07,311.15 L297.95,311.08 Z M33,336.52 C25.63,338.33 19.28,336.62 14.44,330.62 C10.774868,326.060572 9.25826901,320.140003 10.28,314.38 C10.7590773,310.361 12.6056629,306.62899 15.51,303.81 C19.78,299.72 24.95,298.45 30.7,299.33 C33.0168204,299.588392 35.2525915,300.334785 37.26,301.52 C38.6239069,302.260362 39.4118039,303.745548 39.26,305.29 C39.2,306.09 39.26,306.91 39.26,307.71 C39.26,308.34 39.38,308.6 40.08,308.58 C42.47,308.58 44.86,308.58 47.25,308.58 C47.87,308.58 48.06,308.4 48.05,307.78 C48.05,306.06 48.05,304.35 48.05,302.63 C48.0814362,299.854593 46.8305282,297.219937 44.66,295.49 C43.3210064,294.358301 41.8126426,293.443835 40.19,292.78 C35.4990444,290.767047 30.388612,289.926176 25.3,290.33 C15.63,291.15 8.3,295.75 3.64,304.33 C0.673403635,309.831927 -0.381830921,316.163335 0.64,322.33 C1.81,330.33 5.44,336.88 12.18,341.46 C19.35,346.33 27.25,347.26 35.54,345.04 C40.721185,343.806922 45.4133789,341.048037 49.01,337.12 C49.39,336.68 49.52,336.4 49.1,335.87 C47.51,333.87 45.98,331.73 44.39,329.61 C39.78,334.01 37.5,335.44 32.94,336.55 L33,336.52 Z" id="Shape"></path>
            <path d="M234.5,10.18 C234.5,10.82 234.79,10.95 235.35,10.95 C238.35,10.95 241.24,10.95 244.19,10.95 C244.87,10.95 245.06,10.7 245.05,10.06 C245,6.86 245,3.66 244.98,0.46 L234.59,0.46 C234.59,3.7 234.59,6.95 234.5,10.18 Z M225.42,85.12 C225.42,84.38 225.26,84.07 224.42,84.12 C221.52,84.12 218.61,84.12 215.7,84.12 C215.09,84.12 214.78,84.21 214.79,84.93 C214.79,87.93 214.79,90.93 214.79,93.93 C214.79,94.65 215.07,94.75 215.68,94.75 C218.68,94.75 221.58,94.75 224.53,94.75 C225.18,94.75 225.42,94.56 225.4,93.89 C225.4,92.42 225.4,90.89 225.4,89.47 C225.4,88.05 225.38,86.55 225.42,85.12 Z M263.53,27.94 C263.53,27.24 263.36,26.94 262.62,26.94 C260.01,26.94 257.39,26.99 254.78,26.94 C253.92,26.94 253.83,27.29 253.84,27.94 C253.84,30.09 253.84,32.25 253.84,34.39 C253.84,35.32 253.71,35.77 252.63,35.68 C251.55,35.59 250.27,35.68 249.1,35.68 C248.43,35.68 248.22,35.89 248.23,36.55 C248.23,38.19 248.23,39.84 248.23,41.48 C248.23,42.08 248.42,42.29 249.03,42.28 C250.67,42.28 252.31,42.28 253.96,42.28 C254.73,42.28 254.86,41.98 254.84,41.28 C254.79,40.02 254.84,38.75 254.84,37.49 C254.84,36.78 255.02,36.55 255.75,36.56 C257.98,36.56 260.22,36.56 262.45,36.56 C263.25,36.56 263.58,36.4 263.53,35.56 C263.46,34.3 263.53,33.03 263.53,31.77 C263.53,30.51 263.48,29.24 263.53,27.94 Z M301.87,195.24 C301.874044,192.342234 300.13105,189.727739 297.454636,188.616943 C294.778221,187.506147 291.696154,188.118091 289.647122,190.167122 C287.598091,192.216154 286.986147,195.298221 288.096943,197.974636 C289.207739,200.65105 291.822234,202.394044 294.72,202.39 C298.657493,202.36275 301.84275,199.177493 301.87,195.24 Z M282,35.65 C281.21,35.65 281,35.89 281,36.65 C281,40.98 281,45.33 281,49.65 C281,50.46 281.28,50.65 282,50.65 C286.34,50.65 290.673333,50.65 295,50.65 C295.79,50.65 296,50.4 296,49.65 C296,45.31 296,40.9766667 296,36.65 C296,35.84 295.73,35.65 295,35.65 C292.85,35.65 290.7,35.65 288.56,35.65 C286.42,35.65 284.14,35.7 282,35.65 Z M207.81,116.58 C207.81,115.75 207.67,115.41 206.73,115.43 C202.43,115.43 198.14,115.43 193.83,115.43 C193.06,115.43 192.83,115.63 192.83,116.43 C192.83,120.783333 192.83,125.116667 192.83,129.43 C192.83,130.09 192.95,130.43 193.72,130.43 C198.1,130.43 202.48,130.43 206.87,130.43 C207.57,130.43 207.82,130.26 207.8,129.52 C207.8,127.37 207.8,125.22 207.8,123.07 C207.8,120.92 207.71,118.73 207.76,116.58 L207.81,116.58 Z M253.19,134.26 C253.19,135.16 253.47,135.41 254.34,135.4 C256.95,135.34 259.57,135.4 262.18,135.34 C263.4,135.34 263.66,135.73 263.6,136.83 C263.52,138.43 263.6,140.04 263.6,141.64 C263.6,142.54 263.81,142.91 264.75,142.95 C269.796667,143.203333 274.846667,143.486667 279.9,143.8 C280.82,143.86 280.9,143.5 280.9,142.73 C280.9,140.08 280.9,137.42 280.9,134.73 C280.9,133.73 280.63,133.52 279.69,133.53 C275.39,133.58 271.09,133.53 266.79,133.58 C265.7,133.58 265.45,133.25 265.48,132.23 C265.55,129.49 265.48,126.75 265.48,124.01 C265.48,123.35 265.38,123.01 264.6,123.01 C261.1,123.01 257.6,123.01 254.1,123.01 C253.37,123.01 253.15,123.26 253.16,124.01 C253.16,125.73 253.16,127.46 253.16,129.19 C253.16,130.92 253.2,132.58 253.14,134.26 L253.19,134.26 Z M286,110.62 C286.76,110.62 287,110.45 287,109.62 C287,103.54 287,97.4633333 287,91.39 C287,90.62 286.77,90.39 286,90.39 C280,90.39 273.966667,90.39 267.9,90.39 C267.14,90.39 266.9,90.59 266.9,91.39 C266.9,97.4633333 266.9,103.536667 266.9,109.61 C266.9,110.41 267.15,110.61 267.9,110.61 C270.9,110.61 273.9,110.61 276.9,110.61 C279.9,110.61 283,110.58 286,110.62 Z M227.69,48.87 C228.46,48.87 228.69,48.65 228.69,47.87 C228.69,41.51 228.69,35.1466667 228.69,28.78 C228.69,27.86 228.39,27.66 227.53,27.67 C221.21,27.67 214.876667,27.67 208.53,27.67 C207.62,27.67 207.41,27.96 207.41,28.82 C207.45,35.1533333 207.45,41.4866667 207.41,47.82 C207.41,48.75 207.71,48.92 208.55,48.91 C211.68,48.86 214.8,48.91 217.92,48.91 C221.04,48.91 224.49,48.82 227.73,48.87 L227.69,48.87 Z M240.12,125.24 C241.12,125.24 241.41,125 241.4,123.98 C241.34,118.58 241.4,113.19 241.4,107.78 C241.4,106.92 241.61,106.61 242.51,106.64 C244.58,106.7 246.64,106.64 248.71,106.64 C249.57,106.64 249.89,106.45 249.87,105.53 C249.816667,102.616667 249.816667,99.7066667 249.87,96.8 C249.87,95.96 249.63,95.71 248.8,95.72 C245.886667,95.7733333 242.976667,95.7733333 240.07,95.72 C239.14,95.72 238.94,96.05 238.95,96.89 C239,99.38 238.95,101.89 239,104.36 C239,105.43 238.8,105.8 237.63,105.78 C232.78,105.71 227.93,105.78 223.07,105.78 C222.2,105.78 221.93,105.99 221.94,106.9 C221.98,112.633333 221.98,118.37 221.94,124.11 C221.94,124.99 222.19,125.26 223.08,125.25 C225.94,125.2 228.81,125.25 231.68,125.25 C234.55,125.25 237.34,125.18 240.16,125.24 L240.12,125.24 Z M266.78,55 C266.78,54.12 266.55,53.86 265.66,53.86 C256.993333,53.9 248.326667,53.9 239.66,53.86 C238.66,53.86 238.49,54.18 238.49,55.09 C238.49,63.69 238.49,72.2966667 238.49,80.91 C238.49,81.91 238.76,82.09 239.69,82.09 C248.296667,82.09 256.903333,82.09 265.51,82.09 C266.56,82.09 266.73,81.74 266.73,80.8 C266.73,76.54 266.73,72.28 266.73,68.02 C266.73,63.76 266.73,59.3 266.78,55 Z M183.33,138.43 L199.25,139.29 L223.25,140.62 C234.623333,141.286667 245.993333,141.93 257.36,142.55 C259.75,142.69 259.7,142.64 259.72,140.24 C259.72,139.34 259.37,139.24 258.61,139.24 C255.87,139.24 253.13,139.24 250.38,139.24 C249.58,139.24 249.29,139.06 249.29,138.24 C249.33,132.286667 249.33,126.336667 249.29,120.39 C249.29,119.6 249.46,119.29 250.29,119.3 C256.29,119.3 262.29,119.3 268.29,119.3 C269.1,119.3 269.29,119.57 269.29,120.3 C269.29,123.09 269.29,125.87 269.29,128.66 C269.29,129.53 269.51,129.8 270.4,129.79 C274.75,129.74 279.1,129.79 283.45,129.79 C284.45,129.79 284.74,130.02 284.73,131.05 C284.67,135.05 284.73,139.05 284.73,143.05 C284.73,143.68 284.73,144.13 285.61,144.17 C291,144.43 296.39,144.76 301.78,145.1 C302.62,145.16 302.84,144.92 302.84,144.1 C302.84,133.85 302.84,123.59 302.84,113.34 C302.907545,111.853093 302.274202,110.420499 301.128981,109.46975 C299.983761,108.519 298.459098,108.160042 297.01,108.5 C296.22,108.63 295.43,108.77 294.64,108.94 C293.47,109.2 291.91,108.94 291.18,109.77 C290.45,110.6 290.94,112.04 290.99,113.2 C291.04,114.36 290.77,114.54 289.69,114.53 C281.21,114.53 272.69,114.53 264.25,114.53 C263.745605,114.512932 263.240653,114.53634 262.74,114.6 C257.26,115.6 251.79,116.6 246.31,117.5 C245.46,117.65 245.31,117.97 245.31,118.72 C245.31,121.84 245.31,124.96 245.31,128.09 C245.31,128.88 245.15,129.17 244.31,129.17 C235.956667,129.17 227.603333,129.17 219.25,129.17 C218.37,129.17 218.19,128.87 218.25,128.08 C218.31,126.64 218.25,125.21 218.25,123.77 C218.31,122.77 218.04,122.44 217.01,122.67 C215.62,122.98 214.2,123.21 212.78,123.42 C211.96,123.55 211.59,123.8 211.61,124.77 C211.7,127.63 211.61,130.5 211.61,133.37 C211.61,134.06 211.46,134.32 210.71,134.31 C203.79,134.31 196.87,134.31 189.95,134.31 C189.25,134.31 188.95,134.15 189.01,133.4 C189.07,131.8 189.01,130.2 189.01,128.6 C189.01,127.91 188.92,127.6 188.11,127.79 C186.55,128.14 184.96,128.38 183.38,128.66 C179.996667,129.134307 177.386233,131.877334 177.08,135.28 C177.08,135.82 177.08,136.36 177.13,136.89 C177.26,137.96 176.8,139.08 177.37,140.12 C179.079826,138.837028 181.198975,138.221906 183.33,138.39 L183.33,138.43 Z M316.33,247.15 C316.339713,247.083687 316.339713,247.016313 316.33,246.95 C315.48,247.02 314.59,246.59 313.77,247.15 L316.33,247.15 Z M234.59,0.22 C234.575103,0.299306473 234.575103,0.380693527 234.59,0.46 C234.989566,0.774062671 235.493708,0.924232763 236,0.88 C238.52,0.88 241.04,0.88 243.56,0.88 C244.068321,0.929659719 244.576381,0.782966386 244.98,0.47 C244.994787,0.387322619 244.994787,0.302677381 244.98,0.22 L234.59,0.22 Z M177.07,147.34 C177.64,143.85 179.77,142.05 183.28,142.24 C195.16,142.906667 207.04,143.573333 218.92,144.24 L243.56,145.6 L277.8,147.54 L301.8,148.87 C306.3,149.12 310.8,149.36 315.32,149.64 C318.632635,149.921198 321.131555,152.768908 320.98,156.09 C320.98,163.69 320.98,171.28 320.98,178.88 C320.98,179.72 320.98,180.57 320.98,181.41 C320.98,182.03 320.79,182.18 320.17,182.15 C312.08,181.72 303.98,181.38 295.9,180.87 C291.77,180.6 287.9,181.05 284.5,183.6 C279.82923,187.07546 277.729635,193.034199 279.19,198.67 C280.633005,204.368635 285.482322,208.55886 291.33,209.16 C296.96,209.66 302.62,209.84 308.26,210.16 C312.14,210.366667 316.016667,210.553333 319.89,210.72 C320.66,210.72 320.99,210.92 320.99,211.8 C320.99,221.68 320.99,231.55 320.99,241.43 C321.110168,244.17406 319.129107,246.561715 316.41,246.95 C315.57,247.18 314.68,246.83 313.85,247.15 L313.09,247.15 C311.974909,246.952123 310.841333,246.87834 309.71,246.93 C303.6,246.83 297.51,246.39 291.41,246.08 C286.15,245.82 280.89,245.51 275.63,245.22 C270.37,244.93 265.2,244.65 259.99,244.33 C256.37,244.11 252.75,243.94 249.13,243.73 C245.31,243.51 241.48,243.31 237.65,243.07 C234.12,242.85 230.58,242.68 227.05,242.48 C223.05,242.27 219.05,242.03 215.05,241.8 L204.57,241.22 C200.46,240.99 196.33,240.78 192.21,240.52 C189.06,240.33 185.89,240.26 182.75,239.95 C179.423677,239.772136 176.855111,236.958733 176.98,233.63 L176.98,148.84 C176.929705,148.338402 176.96009,147.831986 177.07,147.34 Z" id="Shape"></path>
        </g>
    </g>
</svg>