<?xml version="1.0" encoding="UTF-8"?>
<svg width="161px" height="145px" viewBox="0 0 161 145" version="1.1" xmlns="http://www.w3.org/2000/svg" xmlns:xlink="http://www.w3.org/1999/xlink">
    <!-- Generator: Sketch 52.1 (67048) - http://www.bohemiancoding.com/sketch -->
    <title>Bloom Logo</title>
    <desc>Created with Sketch.</desc>
    <g id="Page-1" stroke="none" stroke-width="1" fill="none" fill-rule="evenodd">
        <g id="Login-Screen" transform="translate(-100.000000, -112.000000)" fill="#FFFFFE">
            <g id="Bloom-Logo" transform="translate(100.000000, 112.000000)">
                <path d="M8.07791206,126.737696 L8.07791206,137.113296 L17.5142111,137.113296 C19.1994523,137.113296 20.5117236,136.88486 21.4502161,136.426774 C23.1532563,135.582291 24.0047764,133.962989 24.0047764,131.568869 C24.0047764,129.545349 23.1791457,128.154483 21.5286935,127.397486 C20.607191,126.975042 19.3127186,126.755517 17.6448719,126.737696 L8.07791206,126.737696 Z M8.07791206,111.714804 L8.07791206,120.295321 L17.5247286,120.295321 C19.212397,120.295321 20.5821106,119.974539 21.6350829,119.332165 C22.6872462,118.689791 23.2139347,117.549637 23.2139347,115.912514 C23.2139347,114.100419 22.5177513,112.902751 21.1261935,112.321941 C19.9255704,111.917318 18.3944523,111.714804 16.5332437,111.714804 L8.07791206,111.714804 Z M29.1822613,109.101159 C30.3711533,110.755698 30.966206,112.736285 30.966206,115.041299 C30.966206,117.418003 30.3658945,119.327709 29.1660804,120.770824 C28.4953819,121.58088 27.5075377,122.319651 26.2017387,122.988352 C28.1851131,123.710112 29.6818467,124.854316 30.6915352,126.420559 C31.7008191,127.987207 32.2052588,129.888408 32.2052588,132.123352 C32.2052588,134.429581 31.6288141,136.497654 30.4751156,138.327975 C29.740907,139.542249 28.8234497,140.563324 27.7223392,141.390391 C26.4812638,142.340992 25.0172965,142.992277 23.3308417,143.344246 C21.6439824,143.69662 19.8135176,143.872402 17.8386382,143.872402 L0.325640704,143.872402 L0.325640704,104.956508 L19.1088392,104.956508 C23.8482261,105.026578 27.2061683,106.408534 29.1822613,109.101159 Z M38.7451759,143.872402 L38.7451759,104.956508 L46.2599925,104.956508 L46.2599925,143.872402 L38.7451759,143.872402 Z M77.5599296,140.351899 C75.1340075,143.349916 71.4508291,144.848925 66.5112035,144.848925 C61.5711734,144.848925 57.888804,143.349916 55.4628819,140.351899 C53.0369598,137.353478 51.8237965,133.744274 51.8237965,129.522668 C51.8237965,125.373156 53.0369598,121.776508 55.4628819,118.733939 C57.888804,115.691774 61.5711734,114.170084 66.5112035,114.170084 C71.4508291,114.170084 75.1340075,115.691774 77.5599296,118.733939 C79.9858518,121.776508 81.1994196,125.373156 81.1994196,129.522668 C81.1994196,133.744274 79.9858518,137.353478 77.5599296,140.351899 Z M71.5475101,136.193073 C72.7254799,134.628855 73.3144648,132.405656 73.3144648,129.522668 C73.3144648,126.640894 72.7254799,124.421746 71.5475101,122.866439 C70.3699447,121.311131 68.6822764,120.533073 66.4849095,120.533073 C64.2871382,120.533073 62.5954246,121.311131 61.4089598,122.866439 C60.222495,124.421746 59.6290603,126.640894 59.6290603,129.522668 C59.6290603,132.405656 60.222495,134.628855 61.4089598,136.193073 C62.5954246,137.757291 64.2871382,138.538994 66.4849095,138.538994 C68.6822764,138.538994 70.3699447,137.757291 71.5475101,136.193073 Z M110.547131,140.351899 C108.121209,143.349916 104.43803,144.848925 99.4984045,144.848925 C94.5583744,144.848925 90.876005,143.349916 88.4500829,140.351899 C86.0241608,137.353478 84.811402,133.744274 84.811402,129.522668 C84.811402,125.373156 86.0241608,121.776508 88.4500829,118.733939 C90.876005,115.691774 94.5583744,114.170084 99.4984045,114.170084 C104.43803,114.170084 108.121209,115.691774 110.547131,118.733939 C112.973053,121.776508 114.186216,125.373156 114.186216,129.522668 C114.186216,133.744274 112.973053,137.353478 110.547131,140.351899 Z M104.535116,136.193073 C105.712681,134.628855 106.301666,132.405656 106.301666,129.522668 C106.301666,126.640894 105.712681,124.421746 104.535116,122.866439 C103.357146,121.311131 101.669882,120.533073 99.4725151,120.533073 C97.2743392,120.533073 95.5830302,121.311131 94.3965653,122.866439 C93.209696,124.421746 92.6162613,126.640894 92.6162613,129.522668 C92.6162613,132.405656 93.209696,134.628855 94.3965653,136.193073 C95.5830302,137.757291 97.2743392,138.538994 99.4725151,138.538994 C101.669882,138.538994 103.357146,137.757291 104.535116,136.193073 Z M155.426892,115.20007 C156.657045,115.692989 157.773932,116.555698 158.77553,117.787388 C159.583766,118.790642 160.129063,120.023142 160.410611,121.483673 C160.586173,122.452095 160.674359,123.868883 160.674359,125.734036 L160.621367,143.872402 L152.922088,143.872402 L152.922088,125.549344 C152.922088,124.458198 152.745716,123.560656 152.394186,122.856718 C151.726319,121.519316 150.496166,120.849804 148.702513,120.849804 C146.628525,120.849804 145.195706,121.712514 144.404864,123.437528 C144.000342,124.352486 143.798485,125.452947 143.798485,126.737696 L143.798485,143.872402 L136.230676,143.872402 L136.230676,126.737696 C136.230676,125.030503 136.054304,123.789497 135.702774,123.014679 C135.070101,121.624623 133.830643,120.92919 131.984807,120.92919 C129.840028,120.92919 128.398714,121.624623 127.660864,123.014679 C127.255937,123.807318 127.05408,124.986355 127.05408,126.553003 L127.05408,143.872402 L119.433683,143.872402 L119.433683,115.147011 L126.737744,115.147011 L126.737744,119.345126 C127.669359,117.849358 128.547982,116.784134 129.374422,116.15067 C130.833535,115.024288 132.723465,114.460489 135.043807,114.460489 C137.240769,114.460489 139.016623,114.944902 140.370156,115.912514 C141.460344,116.810866 142.285975,117.96317 142.84907,119.371453 C143.833274,117.682081 145.054932,116.441075 146.51445,115.648841 C148.06094,114.856606 149.783802,114.460489 151.682631,114.460489 C152.947977,114.460489 154.196334,114.707556 155.426892,115.20007 Z" id="Combined-Shape"></path>
                <path d="M50.4690503,49.9172626 C50.6381407,50.8711034 58.237907,54.6783659 64.1305879,56.6792039 C65.0201332,56.9809497 59.0065,61.1130447 49.4019196,59.7703771 C43.0537462,58.8837709 40.2851935,50.5709777 35.365794,47.2359777 C34.238794,46.4684497 46.6879774,44.1792318 51.8318869,44.5939804 C60.8232111,45.3222207 66.2713216,55.3397765 64.6164196,54.3494832 C57.5773216,50.1461034 50.3739874,49.3741201 50.4690503,49.9172626 Z M68.2312337,33.6557961 C73.5842814,38.4719832 73.2667312,42.6522765 75.6995302,46.9597486 C76.162304,47.777095 68.9702965,47.7248464 61.7973015,41.1905307 C57.0562965,36.8696927 59.4555201,28.4438966 57.2755477,22.9128352 C56.7686809,21.6284916 68.3667487,26.8002933 72.3561508,30.0336313 C79.3697638,35.7165782 78.2209196,47.0630307 77.4114698,45.3096648 C73.9693869,37.8648464 72.7327613,35.0037291 68.2312337,33.6557961 Z M115.876312,37.1613128 C115.015083,36.6339665 106.80206,39.9503352 101.176769,43.1796229 C100.32808,43.6688966 101.249583,36.1139106 108.92459,29.5273464 C113.993259,25.1749162 122.387912,28.7456425 128.383342,27.1984358 C129.768427,26.839176 122.952626,38.1698324 119.085389,41.8993296 C112.318535,48.4271648 100.745143,45.7782821 102.658535,45.1650698 C110.790653,42.5603352 116.36457,37.4606285 115.876312,37.1613128 Z M115.011847,67.0390084 C114.605706,66.220852 106.727628,64.7987989 100.869332,64.5561872 C99.9862588,64.5205447 104.327191,59.1863268 113.364631,57.8468994 C119.339025,56.9615084 124.044432,63.7412709 129.372804,65.4492737 C130.494545,65.8065084 120.207131,71.1678631 115.19105,72.2128352 C106.869211,73.9435196 99.2904799,66.3358799 101.050153,66.7915363 C108.524922,68.7190642 115.244852,67.5035754 115.011847,67.0390084 Z M126.117206,52.5462989 C125.858716,51.9055447 120.018219,50.3866899 115.631575,49.8670391 C114.964518,49.7908939 118.53443,46.0289944 125.404033,45.5421508 C129.944394,45.2193436 133.093198,50.5839385 137.003719,52.1720531 C137.904995,52.5390084 129.579111,55.9724302 125.954992,56.4438827 C119.602369,57.2673045 114.339126,51.1149302 115.638857,51.5580307 C121.14441,53.4341201 126.265666,52.9071788 126.117206,52.5462989 Z M106.625688,18.9779888 C105.777809,18.9285754 100.996756,24.6670112 98.0959246,29.3098464 C97.6610628,30.0121648 95.3431482,24.0303073 98.4264196,16.0763687 C100.45955,10.8207263 108.119995,10.1252933 111.959724,6.58534916 C112.759465,5.85548883 112.375977,16.6324721 110.897852,21.2173883 C108.465053,28.768324 98.809907,31.4143715 99.990304,30.1928073 C104.995867,25.0145251 107.109497,19.0018855 106.625688,18.9779888 Z M73.5964171,12.7518994 C73.0592111,13.3023324 74.1174422,19.9719274 75.5506658,24.707919 C75.7695126,25.4207682 70.3266608,23.4446369 66.7494673,16.6178911 C64.3866508,12.107095 68.4666658,6.47315642 68.3432864,1.75336592 C68.3105201,0.672346369 75.5425754,7.6473324 77.6566106,11.1726955 C81.3450477,17.3193994 77.4058065,25.4705866 77.2775729,23.9412011 C76.7318719,17.4530587 73.9006181,12.4388128 73.5964171,12.7518994 Z M87.5091633,11.7381145 C87.173005,11.4643156 84.9926281,16.7272486 85.2345327,23.1671927 C85.2903568,24.6824022 80.446603,17.1513128 83.3320628,10.671676 C84.686809,7.6299162 91.2190402,-1.09884078 91.348892,0.30174581 C91.7950804,4.95146648 96.475407,9.99568436 94.6946985,14.7098045 C92.0013869,21.8455866 86.8934799,24.4381704 87.0205,23.7119553 C87.8623116,18.8876676 88.1013844,12.2124022 87.5091633,11.7381145 Z M57.5421281,12.615405 C57.3698015,13.0269134 59.364907,16.4056564 61.1488518,18.6584218 C61.4194774,18.9990503 58.0562764,19.0954469 54.6675905,16.1687151 C52.4285578,14.2359218 53.4293467,10.3184916 52.3561482,7.7923324 C52.0305075,7.03371508 57.8479472,9.70446927 59.399696,10.8924162 C62.7046457,13.4282961 62.3130678,18.6742179 61.9190628,17.8767179 C60.2394849,14.485824 57.638809,12.3812989 57.5421281,12.615405 Z M46.0763392,29.2195251 C49.8816834,31.6784497 49.946407,35.2309497 53.1089648,38.7862849 C39.6816457,43.3375838 40.3284774,25.2389106 37.549407,21.6463128 C37.3483593,21.3891201 37.6400201,21.3555028 37.7694673,21.3931704 C41.7103266,22.5114525 46.7365201,23.7030447 49.9128317,25.8634637 C55.6141734,29.7420112 55.0369196,38.7036592 54.3099925,37.4209358 C51.2145854,31.9716899 48.5868065,29.2126397 46.0763392,29.2195251 Z M31.9714447,61.4601536 C31.7473392,61.6845391 35.3827839,63.6724162 40.0554246,63.9996788 C41.1537035,64.0742039 35.3354548,66.9989106 30.8768065,64.4014665 C28.3291231,62.9202793 23.2284975,57.7756145 24.0088216,57.7869553 C27.4043844,57.825838 31.4132035,54.8302514 34.6821508,56.4876257 C39.6270352,58.9939385 41.1027337,62.8951676 40.5853492,62.7477374 C37.1691558,61.7614944 32.3622136,61.0668715 31.9714447,61.4601536 Z M32.3909347,35.4889525 C32.3779899,35.9859218 35.8071281,38.6663966 38.5615226,40.2686872 C38.9777764,40.5104888 35.5429749,41.9730447 30.858603,40.3253911 C27.763196,39.2382961 27.2130452,34.7842039 25.0836382,32.610824 C24.5917387,32.1134497 31.0762362,32.2256425 33.612593,32.957933 C38.0522286,34.234581 39.7710452,39.8130307 39.0392638,39.1487849 C35.9329347,36.3277654 32.3957889,35.205838 32.3909347,35.4889525 Z M90.6130653,34.2945251 C89.999,34.3666201 87.3073065,39.0811453 85.8239221,42.7713547 C85.6010302,43.3290782 83.1815804,39.3452235 84.3777538,33.262514 C85.169,29.2442318 90.5580503,27.7695251 92.8565477,24.7504469 C93.5450452,23.8391341 94.3193015,32.6703631 93.952804,35.351648 C93.1704573,41.0657821 86.6010101,44.1840922 87.2911256,43.1613966 C90.2138015,38.8199022 90.9605503,34.2503771 90.6130653,34.2945251 Z M46.4262513,72.6065223 C51.2651508,71.0917179 54.3172739,72.7725838 59.1537462,71.8337291 C59.936093,71.6830587 57.9470553,75.7155168 50.7975226,79.7836173 C46.0706759,82.4770531 39.9174824,78.3186313 34.8912889,78.6232123 C33.7096784,78.6969274 40.9465879,70.6899302 44.5949774,68.324162 C51.0127286,64.1604749 60.1112513,67.7251257 58.4858794,67.918324 C51.5875553,68.7352654 48.1394045,70.5777374 46.4262513,72.6065223 Z M96.8859975,42.6522765 C107.214269,82.7783939 79.8628769,75.8892737 74.7942085,103.502053 C70.9912915,92.7546369 75.3111884,82.7958101 73.3880879,76.1209497 C72.2360075,72.1176536 66.6467186,67.5400279 56.2290477,70.3517318 C70.4811884,62.6233939 75.571701,69.9608799 85.5019221,68.8912011 C91.9423266,68.1949581 98.4737487,59.1612151 96.8859975,42.6522765 Z M75.5797915,104.76736 C78.415495,86.9870391 95.7642563,83.694567 97.0720779,72.4688128 C95.7642563,94.0227793 88.5576859,86.405824 75.5797915,104.76736 Z M93.8108166,88.3082402 C91.9997688,101.274399 84.2074497,97.2638128 77.5105779,104.76736 C81.8911533,96.1977793 89.087206,96.3780168 93.8108166,88.3082402 Z" id="Combined-Shape"></path>
            </g>
        </g>
    </g>
</svg>